<svg width="20" height="20" viewBox="0 0 20 20" fill="none" xmlns="http://www.w3.org/2000/svg">
<path d="M9.16669 16.6667C7.70341 16.6712 6.2919 16.1255 5.21212 15.1379C4.13234 14.1504 3.46316 12.793 3.3373 11.3352C3.21144 9.8773 3.6381 8.42538 4.53265 7.26737C5.4272 6.10935 6.7243 5.32983 8.16669 5.08341C12.9167 4.16675 14.1667 3.73341 15.8334 1.66675C16.6667 3.33341 17.5 5.15008 17.5 8.33341C17.5 12.9167 13.5167 16.6667 9.16669 16.6667Z" stroke="#31765F" stroke-width="1.66667" stroke-linecap="round" stroke-linejoin="round"/>
<path d="M1.66663 17.5C1.66663 15 3.20829 13.0333 5.89996 12.5C7.91663 12.1 9.99996 10.8333 10.8333 10" stroke="#31765F" stroke-width="1.66667" stroke-linecap="round" stroke-linejoin="round"/>
</svg>
